<svg xmlns="http://www.w3.org/2000/svg" viewBox="10913.396 6923 33.134 30">
  <defs>
    <style>
      .cls-1 {
        fill: #fff;
      }
    </style>
  </defs>
  <g id="linkedin" transform="translate(10913.396 6923)">
    <rect id="Rectangle_64" data-name="Rectangle 64" class="cls-1" width="6.447" height="20.418" transform="translate(0.895 9.582)"/>
    <path id="Path_257" data-name="Path 257" class="cls-1" d="M20.407,5.634c-3.672,0-6,1.97-6.448,3.4V5.811H6.706c.09,1.7,0,20.418,0,20.418h7.253V15.214a4.991,4.991,0,0,1,.179-1.7A3.656,3.656,0,0,1,17.631,11c2.507,0,3.671,1.88,3.671,4.656V26.228h7.343V14.855C28.557,8.587,24.974,5.634,20.407,5.634Z" transform="translate(4.488 3.771)"/>
    <path id="Path_258" data-name="Path 258" class="cls-1" d="M3.939,0C1.522,0,0,1.522,0,3.582A3.54,3.54,0,0,0,3.851,7.074h.088c2.417,0,3.939-1.522,3.939-3.582A3.617,3.617,0,0,0,3.939,0Z"/>
  </g>
</svg>
