<svg xmlns="http://www.w3.org/2000/svg" viewBox="10781 6923 30.625 30">
  <defs>
    <style>
      .cls-1 {
        fill: #fff;
      }
    </style>
  </defs>
  <g id="group-24" transform="translate(10781 6923)">
    <path id="path" class="cls-1" d="M0,0V30H30.625V0ZM8.932,6.5c1.212-1.562,4.466-1,4.466,1.562,0,2.5-4.147,5.438-4.466,5.625h0c-.255-.187-4.466-3.125-4.466-5.625C4.466,5.5,7.72,4.938,8.932,6.5Zm5.1,18.5H3.828V23.75H14.036Zm0-3.75H3.828V20H14.036Zm0-3.75H3.828V16.25H14.036ZM26.8,25H16.589V23.75H26.8Zm0-3.75H16.589V20H26.8Zm0-3.75H16.589V16.25H26.8Zm0-3.75H16.589V12.5H26.8Zm0-3.75H16.589V8.75H26.8Zm0-3.75H16.589V5H26.8Z"/>
  </g>
</svg>
