<?xml version="1.0" standalone="no"?>
<!DOCTYPE svg PUBLIC "-//W3C//DTD SVG 20010904//EN"
 "http://www.w3.org/TR/2001/REC-SVG-20010904/DTD/svg10.dtd">
<svg version="1.0" xmlns="http://www.w3.org/2000/svg"
 width="16.000000pt" height="16.000000pt" viewBox="0 0 16.000000 16.000000"
 preserveAspectRatio="xMidYMid meet">
<metadata>
Created by potrace 1.11, written by Peter Selinger 2001-2013
</metadata>
<g transform="translate(0.000000,16.000000) scale(0.002532,-0.002532)"
fill="#000000" stroke="none">
<path d="M5017 6314 c-2 -2 -21 -6 -43 -8 -232 -25 -551 -178 -859 -413 -198
-151 -423 -369 -502 -483 -9 -14 -23 -29 -30 -33 -7 -4 -13 -13 -13 -19 0 -6
-8 -18 -18 -27 -29 -27 -154 -222 -222 -346 -148 -271 -252 -509 -350 -805
-49 -146 -120 -397 -134 -475 -2 -11 -9 -38 -14 -60 -6 -22 -13 -51 -16 -65
-3 -14 -8 -36 -11 -50 -3 -14 -8 -41 -11 -60 -3 -19 -7 -43 -10 -52 -3 -10 -7
-30 -10 -45 -2 -16 -7 -40 -10 -55 -3 -15 -7 -40 -10 -57 -2 -17 -6 -43 -8
-58 -3 -16 -7 -45 -10 -65 -3 -21 -9 -55 -12 -75 -3 -21 -7 -58 -10 -83 -2
-25 -6 -61 -9 -80 -7 -55 -21 -207 -30 -325 -3 -44 -8 -100 -10 -125 -8 -89
-27 -454 -25 -490 1 -14 1 -32 0 -40 0 -8 -1 -134 -2 -280 -1 -239 4 -365 17
-441 4 -21 -6 -40 -43 -86 -103 -129 -192 -218 -302 -303 -25 -19 -51 -40 -58
-47 -6 -6 -21 -15 -32 -18 -11 -3 -20 -11 -20 -16 0 -5 -3 -8 -7 -7 -5 1 -30
-9 -58 -21 -69 -32 -163 -36 -234 -10 -136 48 -204 181 -228 449 -9 97 -9 546
-1 675 12 173 17 239 22 270 3 17 8 50 11 75 10 82 14 115 18 135 3 11 8 42
11 68 4 27 10 59 12 70 2 12 6 38 9 57 11 95 107 502 146 620 12 36 22 70 24
75 2 12 11 34 36 99 10 27 19 52 19 56 0 10 84 186 107 225 10 16 30 43 45 59
107 119 121 292 27 325 -51 18 -223 5 -324 -24 -49 -14 -97 -27 -105 -29 -33
-10 -129 -46 -195 -74 -397 -168 -768 -419 -879 -595 -38 -62 -74 -136 -128
-271 -49 -122 -128 -346 -122 -346 2 0 -2 -13 -11 -30 -9 -16 -13 -30 -11 -30
3 0 1 -11 -4 -25 -21 -54 -83 -306 -106 -425 -2 -14 -7 -36 -10 -50 -3 -14 -8
-38 -11 -55 -2 -16 -8 -55 -13 -85 -16 -96 -19 -114 -25 -165 -3 -27 -8 -70
-11 -95 -7 -52 -10 -76 -21 -220 -10 -131 -10 -587 1 -655 7 -47 9 -64 19
-110 2 -11 7 -37 11 -58 10 -53 39 -143 67 -202 99 -216 276 -354 489 -382 96
-12 424 -6 550 12 143 19 246 45 370 92 114 44 162 66 255 118 60 33 199 122
230 147 6 4 44 33 85 65 41 31 77 59 80 62 3 3 34 31 70 61 36 30 116 105 179
168 62 62 115 112 117 110 1 -2 5 -15 8 -28 2 -14 12 -50 22 -80 9 -30 17 -59
18 -65 2 -5 10 -27 19 -49 9 -21 17 -41 17 -45 0 -11 79 -161 102 -194 45 -64
112 -142 148 -173 14 -12 36 -32 50 -44 34 -30 169 -114 190 -118 3 0 12 -3
20 -6 115 -39 194 -50 370 -50 195 0 265 7 420 44 128 31 131 32 165 44 149
57 259 106 308 139 15 10 27 15 27 10 0 -4 4 -3 8 3 4 6 32 25 62 42 312 183
620 467 914 842 49 63 311 452 323 480 4 8 24 41 45 72 21 31 38 60 38 64 0 3
14 26 30 51 17 24 30 46 30 48 0 2 23 41 50 88 56 95 72 161 49 203 -27 52
-102 65 -152 28 -14 -11 -38 -41 -53 -69 -16 -27 -41 -70 -55 -95 -14 -25 -47
-80 -73 -123 -25 -43 -46 -83 -46 -88 0 -5 -4 -9 -8 -9 -5 0 -14 -12 -21 -27
-11 -24 -142 -231 -164 -258 -4 -5 -25 -35 -47 -65 -22 -30 -44 -60 -50 -67
-5 -7 -10 -15 -10 -18 0 -3 -8 -13 -17 -24 -10 -10 -29 -33 -43 -52 -76 -100
-195 -233 -284 -318 -27 -25 -54 -51 -61 -58 -34 -33 -147 -112 -186 -131
-125 -60 -293 -45 -412 36 -45 32 -135 120 -151 149 -5 10 -12 20 -16 23 -15
12 -69 113 -102 190 -43 104 -63 173 -93 325 -7 39 -16 81 -18 95 -3 14 -8 52
-12 85 -4 32 -9 63 -11 67 -7 10 19 57 52 93 14 17 56 68 92 115 37 47 69 87
72 90 11 9 225 305 265 365 22 33 42 62 46 65 9 8 173 267 188 297 8 15 17 30
20 33 3 3 12 16 20 30 8 14 39 66 68 117 29 51 53 97 53 102 0 6 4 11 8 11 5
0 23 32 42 70 19 39 38 70 44 70 5 0 7 3 3 6 -3 3 4 22 15 42 26 48 224 439
237 472 6 14 15 32 20 40 9 14 72 146 111 235 80 181 224 544 235 595 3 12 47
156 52 170 7 17 5 12 32 110 11 41 22 86 25 100 2 14 9 46 15 73 6 26 14 64
17 85 3 20 7 48 10 62 17 98 24 356 11 455 -24 180 -74 335 -141 430 -90 127
-218 213 -359 239 -61 12 -280 19 -290 10z m296 -258 c127 -18 204 -89 243
-224 2 -7 4 -13 4 -15 9 -27 22 -93 27 -132 12 -97 4 -392 -12 -470 -2 -11 -7
-41 -10 -67 -3 -26 -7 -53 -10 -60 -2 -7 -7 -31 -10 -53 -3 -22 -10 -56 -15
-75 -5 -19 -11 -46 -14 -60 -23 -133 -141 -500 -207 -647 -11 -23 -19 -44 -19
-47 0 -3 -13 -35 -30 -71 -16 -36 -30 -68 -30 -71 0 -3 -49 -107 -110 -231
-60 -124 -110 -229 -110 -234 0 -5 -3 -9 -7 -9 -5 0 -17 -19 -28 -43 -27 -57
-168 -317 -213 -392 -109 -184 -238 -388 -326 -518 -133 -196 -130 -191 -138
-195 -5 -2 -8 -8 -8 -13 0 -11 -69 -103 -81 -107 -5 -2 -9 -8 -9 -13 0 -10
-73 -111 -100 -139 -8 -8 -25 -29 -38 -45 l-23 -30 6 115 c4 63 8 129 10 145
2 17 7 71 11 120 11 155 12 168 19 240 3 39 8 88 11 110 7 58 16 141 29 265 3
30 8 66 10 80 5 34 14 96 19 145 6 49 14 103 26 175 5 30 12 75 15 100 3 25 8
52 10 60 2 8 6 33 10 55 3 22 15 90 26 150 12 61 23 121 25 135 3 14 7 32 9
40 2 8 7 31 10 50 3 19 17 85 31 145 13 61 27 121 30 135 3 14 14 59 25 100
11 41 22 86 25 100 19 93 103 361 224 715 120 350 207 518 338 657 42 44 132
115 132 103 0 -3 9 -1 20 5 45 24 108 29 203 16z"/>
</g>
</svg>
