<svg xmlns="http://www.w3.org/2000/svg" viewBox="17599 9192 31.967 32">
  <defs>
    <style>
      .cls-1 {
        fill: #fff;
        fill-rule: evenodd;
      }
    </style>
  </defs>
  <path id="Fill-12" class="cls-1" d="M40.21,39.25a5.5,5.5,0,0,1-2.464,1.875,9.888,9.888,0,0,1-3.846.68,9.275,9.275,0,0,1-4.4-.927,5.692,5.692,0,0,1-2-1.781,3.827,3.827,0,0,1-.767-2.166,1.383,1.383,0,0,1,.46-1.044,1.634,1.634,0,0,1,1.173-.437,1.45,1.45,0,0,1,.977.34,2.621,2.621,0,0,1,.682,1.006,6.527,6.527,0,0,0,.744,1.322A2.955,2.955,0,0,0,31.9,39a4.494,4.494,0,0,0,1.906.345,4.559,4.559,0,0,0,2.636-.7,2.051,2.051,0,0,0,1.015-1.735A1.753,1.753,0,0,0,36.9,35.57a3.585,3.585,0,0,0-1.414-.786q-.866-.273-2.317-.577a17.958,17.958,0,0,1-3.249-.978A5.2,5.2,0,0,1,27.849,31.7a3.742,3.742,0,0,1-.768-2.4,3.888,3.888,0,0,1,.811-2.431,5.077,5.077,0,0,1,2.347-1.635,10.354,10.354,0,0,1,3.612-.57,9.7,9.7,0,0,1,2.869.378,6.247,6.247,0,0,1,2.008,1.007A4.278,4.278,0,0,1,39.9,27.367a2.837,2.837,0,0,1,.369,1.344,1.61,1.61,0,0,1-1.609,1.563,1.394,1.394,0,0,1-.953-.289A3.873,3.873,0,0,1,37,29.04a4.307,4.307,0,0,0-1.181-1.463,3.663,3.663,0,0,0-2.211-.526,4.07,4.07,0,0,0-2.279.57A1.637,1.637,0,0,0,30.459,29a1.324,1.324,0,0,0,.3.859,2.414,2.414,0,0,0,.811.621,5.857,5.857,0,0,0,1.043.408q.529.147,1.746.429,1.522.328,2.757.724a8.785,8.785,0,0,1,2.1.96,4.081,4.081,0,0,1,1.352,1.433,4.273,4.273,0,0,1,.486,2.119,4.6,4.6,0,0,1-.842,2.7m7.6-6.212A14.16,14.16,0,0,0,31.4,18.953,8.122,8.122,0,0,0,19.637,30.015,14.24,14.24,0,0,0,36.51,46.993,8.124,8.124,0,0,0,47.634,35.167a14.244,14.244,0,0,0,.177-2.129" transform="translate(17581 9175)"/>
</svg>
