<?xml version="1.0" encoding="utf-8"?>
<!-- Generator: Adobe Illustrator 16.0.0, SVG Export Plug-In . SVG Version: 6.00 Build 0)  -->
<!DOCTYPE svg PUBLIC "-//W3C//DTD SVG 1.1//EN" "http://www.w3.org/Graphics/SVG/1.1/DTD/svg11.dtd">
<svg version="1.1" id="Capa_1" xmlns="http://www.w3.org/2000/svg" xmlns:xlink="http://www.w3.org/1999/xlink" x="0px" y="0px"
	 width="34.66px" height="36.625px" viewBox="0 0 34.66 36.625" enable-background="new 0 0 34.66 36.625" xml:space="preserve">
<path fill="#9559D5" d="M34.49,24.09c-0.113-0.101-0.245-0.15-0.396-0.15c-0.275,0-0.503,0.178-0.679,0.528
	c-0.354,0.63-0.808,1.396-1.358,2.304c-0.556,0.905-1.166,1.78-1.832,2.623c-0.668,0.846-1.341,1.562-2.021,2.152
	c-0.681,0.592-1.297,0.889-1.851,0.889c-0.654,0-1.209-0.184-1.662-0.549c-0.453-0.363-0.83-0.83-1.133-1.396
	c-0.303-0.566-0.535-1.208-0.697-1.927c-0.164-0.717-0.283-1.429-0.358-2.133c1.208-1.436,2.328-2.938,3.36-4.513
	c1.031-1.573,1.988-3.241,2.869-5.003c0.453-0.881,0.912-1.818,1.377-2.813c0.467-0.994,0.895-2.014,1.285-3.059
	c0.39-1.044,0.711-2.082,0.963-3.114c0.25-1.032,0.377-2.014,0.377-2.945c0-0.554-0.058-1.126-0.17-1.718
	c-0.112-0.592-0.314-1.133-0.604-1.624c-0.29-0.49-0.688-0.887-1.188-1.189C30.268,0.151,29.626,0,28.846,0
	c-0.957,0-1.895,0.195-2.812,0.586c-0.919,0.391-1.706,0.824-2.36,1.302l-0.527,0.378c-1.914,1.359-3.448,3.046-4.605,5.06
	c-1.158,2.015-2.052,4.16-2.681,6.438c-0.63,2.278-1.052,4.606-1.265,6.985c-0.215,2.379-0.321,4.612-0.321,6.702
	c0,0.802,0.056,1.604,0.138,2.404c-0.36,0.465-0.711,0.888-1.043,1.221c-0.504,0.504-0.981,0.906-1.435,1.208
	s-0.869,0.452-1.246,0.452c-0.504,0-0.894-0.131-1.171-0.396c-0.277-0.264-0.479-0.623-0.604-1.074
	c-0.127-0.453-0.202-0.965-0.227-1.529C8.66,29.17,8.647,28.585,8.647,27.98c0-1.459,0.095-2.856,0.283-4.19s0.415-2.549,0.68-3.644
	c0.265-1.098,0.548-2.026,0.85-2.795c0.302-0.768,0.578-1.314,0.83-1.643c0.151-0.15,0.289-0.339,0.416-0.565
	c0.125-0.227,0.188-0.516,0.188-0.869c0-0.201-0.063-0.352-0.188-0.453c-0.127-0.1-0.365-0.15-0.718-0.15
	c-0.604,0-1.347,0.157-2.228,0.472c-0.882,0.315-1.75,0.705-2.605,1.171C5.3,15.78,4.544,16.276,3.889,16.805
	c-0.654,0.528-1.07,0.994-1.246,1.396c-0.806,1.662-1.447,3.562-1.925,5.701C0.239,26.041,0,28.281,0,30.622
	c0,0.806,0.069,1.565,0.208,2.284c0.138,0.718,0.371,1.347,0.698,1.888c0.327,0.542,0.761,0.97,1.303,1.284
	c0.541,0.314,1.214,0.472,2.02,0.472c0.881,0,1.655-0.038,2.322-0.112c0.667-0.076,1.271-0.201,1.812-0.379
	c0.541-0.176,1.058-0.39,1.548-0.642c0.491-0.251,0.988-0.554,1.491-0.906c1.188-0.821,2.283-1.795,3.292-2.907
	c0.167,0.726,0.379,1.416,0.692,2.039c0.439,0.881,1.044,1.601,1.812,2.152c0.768,0.553,1.769,0.83,3.002,0.83
	c1.737,0,3.323-0.357,4.758-1.076c1.435-0.717,2.743-1.636,3.927-2.756s2.24-2.372,3.172-3.757c0.932-1.384,1.774-2.743,2.529-4.078
	c0.051-0.201,0.075-0.34,0.075-0.415C34.66,24.342,34.604,24.189,34.49,24.09z M22.445,23.845c0.013-0.214,0.031-0.422,0.058-0.622
	c0.201-3.047,0.554-5.967,1.058-8.761c0.504-2.795,1.133-5.261,1.888-7.401c0.151-0.428,0.335-0.956,0.549-1.585
	s0.472-1.24,0.772-1.832c0.304-0.591,0.666-1.101,1.097-1.529c0.428-0.428,0.931-0.642,1.511-0.642c0.05,0,0.111,0.007,0.188,0.02
	c0.074,0.013,0.139,0.019,0.188,0.019c0.704,0.101,1.164,0.44,1.378,1.02c0.215,0.58,0.321,1.233,0.321,1.963
	c0,1.058-0.113,2.128-0.341,3.21s-0.527,2.146-0.905,3.19c-0.378,1.045-0.812,2.076-1.304,3.096c-0.489,1.02-0.987,1.995-1.49,2.927
	c-0.705,1.309-1.475,2.6-2.305,3.87s-1.725,2.511-2.682,3.719C22.427,24.277,22.434,24.059,22.445,23.845z"/>
</svg>
